<svg xmlns="http://www.w3.org/2000/svg" width="435.877" height="80.331"><path d="M44.747 31.793c4.9 4.736 7.349 11.976 7.349 19.325a27.152 27.152 0 0 1-4.518 15.625c-8.819 12.194-28.634 14.045-39.63 3.919C2.776 65.925 0 58.743 0 51.118a26.051 26.051 0 0 1 8-19.275c9.581-8.928 27.273-9.2 36.745-.054zm-8.057 4.464c2.831 3.593 4.192 9.2 4.192 14.861 0 4.355-.49 9.037-2.232 12.3-5.008 9.363-16.658 10.452-22.918 2.667-2.94-3.647-4.79-9.145-4.79-14.97 0-5.77 1.252-11.486 4.192-15.079a14.079 14.079 0 0 1 21.557.218zm136.147-4.464c4.9 4.736 7.349 11.976 7.349 19.325a27.153 27.153 0 0 1-4.518 15.625c-8.819 12.194-28.634 14.045-39.63 3.919-5.172-4.79-7.948-11.976-7.948-19.543a26.051 26.051 0 0 1 8-19.271c9.581-8.928 27.273-9.2 36.745-.054zm-8.057 4.464c2.831 3.593 4.192 9.2 4.192 14.861 0 4.355-.49 9.037-2.232 12.3-5.008 9.363-16.658 10.452-22.918 2.667-2.94-3.647-4.79-9.145-4.79-14.97 0-5.77 1.252-11.486 4.192-15.079a14.079 14.079 0 0 1 21.557.218zm263.748-4.464c4.9 4.736 7.349 11.976 7.349 19.325a27.15 27.15 0 0 1-4.518 15.625c-8.819 12.194-28.634 14.045-39.63 3.919-5.172-4.792-7.948-11.977-7.948-19.544a26.05 26.05 0 0 1 8-19.275c9.581-8.928 27.273-9.2 36.745-.054zm-8.056 4.464c2.831 3.593 4.191 9.2 4.191 14.861 0 4.355-.49 9.037-2.232 12.3-5.008 9.363-16.658 10.452-22.918 2.667-2.939-3.647-4.79-9.145-4.79-14.97 0-5.77 1.252-11.486 4.192-15.079a14.08 14.08 0 0 1 21.557.218zm-199.077-9.962h10.887v49.429h-10.887zm143.496 0h10.887v49.429h-10.887zm-5.009 0v6.26c-5.389-1.361-9.69-1.143-12.248.98a7.753 7.753 0 0 0-2.558 4.79 18.65 18.65 0 0 0-.164 3.484v33.915h-10.887v-32.39c0-5.335 1.688-11 6.1-14.317 4.627-3.484 11.486-4.028 19.76-2.722zM215.516 75.832l-1.361-5.5c-5.389 1.361-9.69 1.143-12.248-.98a7.755 7.755 0 0 1-2.558-4.79 18.665 18.665 0 0 1-.163-3.484v-28.36h15.732v-6.369h-15.732v-8.492c.163-6.369-4.029-8.274-10.888-7.567v49.317c0 5.335 1.688 11 6.1 14.317 4.573 3.484 12.14 4.083 21.122 1.905zm64.127-1.306c-9.962 4.246-24.333 3.048-31.193-2.5-5.444-4.355-8.438-11.486-8.438-20.9a26.051 26.051 0 0 1 8-19.271c7.676-7.186 20.8-8.71 30.267-4.954v6.641c-6.26-3.321-15.46-3.43-21.176 1.361-4.3 3.593-5.879 9.744-5.825 15.9.054 5.77 1.47 11.541 4.682 15.351 3.157 3.756 8.329 5.063 13.446 4.736a18.075 18.075 0 0 0 8.492-2.4l1.742 6.043zm7.512-40.501v-6.532c14.48-4.355 21.993-10.289 27.055-16.93h8.869c-3.647 5.988-10.4 10.942-18.835 14.752 5.063 0 9.363.762 12.684 2.45 4.464 2.232 7.295 6.042 8.274 11.7a41.726 41.726 0 0 1 .381 6.913v29.89h-1.687c-5.172 0-8.166-1.742-8.6-5.934a20.51 20.51 0 0 1-15.569 6.8c-5.553 0-10.071-1.415-12.956-4.083a13.845 13.845 0 0 1-4.3-10.016 14.624 14.624 0 0 1 8-13.99 31.437 31.437 0 0 1 15.515-3.538l8.927.054v-3.043a11.327 11.327 0 0 0-1.8-6.478 10.906 10.906 0 0 0-4.355-3.7c-5.063-2.286-12.629-1.361-21.612 1.688zm27.763 17.474h-7.186c-4.082 0-8.764.653-11.7 3.1-2.123 1.742-3.1 4.409-2.994 7.893.109 3.811 1.687 6.424 4.409 7.784a9.349 9.349 0 0 0 4.028.98c5.226.054 10.888-3.321 12.739-8.274a10.414 10.414 0 0 0 .708-3.865V51.5zM71.639 6.643h-3.7c-.054 0-.054 0-.109-.054-.054 0-.109 0-.109-.054h-.054c-.054 0-.054 0-.109-.054h-.06l-.109-.054h-.054l-.109-.054h-.054l-.109-.054h-.054l-.109-.054-.054-.054h-.048l-.054-.054-.054-.054h-.054l-.109-.054-.054-.054-.054-.054-.054-.054-.054-.054-.054-.054-.109-.054-.054-.054-.054-.054-.054-.054-.054-.054-.109-.109-.055-.054-.054-.054-.054-.054-.109-.109-.163-.163-.109-.109v-.065a.751.751 0 0 1-.163-.218 2.362 2.362 0 0 1-.218-.381 6.8 6.8 0 0 1-.662-4.19h27.382c6.75-.054 13.555 1.579 18.236 5.063a17.741 17.741 0 0 1 7.24 14.48 16.768 16.768 0 0 1-4.464 11.7 24.382 24.382 0 0 1-7.458 5.063 27.4 27.4 0 0 1 8.928 4.409 21.082 21.082 0 0 1 7.948 16.875 20.418 20.418 0 0 1-4.9 13.609c-9.526 10.615-30.975 12.248-42.842 3.43a21.093 21.093 0 0 1-7.948-11.867 52 52 0 0 1-1.47-11.922V12.522c2.776-.218 5.661-.327 7.893.98 2.94 1.8 3.43 5.389 3.43 8.492l-.054 29.287c.054 6.1 1.415 11.051 3.647 14.807a14.921 14.921 0 0 0 7.458 6.478c5.226 2.069 12.9 1.579 17.474-1.8 5.063-3.7 5.553-9.908 5.5-13.718-.054-3.756-.925-9.526-6.043-13.065a18.854 18.854 0 0 0-11-3.212h-9.962v-7.345h10.887a11.873 11.873 0 0 0 2.722-.6 9.987 9.987 0 0 0 4.3-2.123c3.593-2.885 4.736-8.819 4.464-12.412-.435-6.1-3.974-11.813-17.148-11.813H71.639z" fill="#FFF" fill-rule="evenodd"/></svg>